<?xml version="1.0" encoding="UTF-8"?>
<svg xmlns="http://www.w3.org/2000/svg" id="a9021be5-d872-447e-a737-0582a028da83" data-name="Layer 1" viewBox="0 0 511 134">
  <defs>
    <style>.a658acff-a637-4de7-9742-3b7c95972de1{fill:#404041;}</style>
  </defs>
  <title>CODE</title>
  <path class="a658acff-a637-4de7-9742-3b7c95972de1" d="M199.68,120.27a53.34,53.34,0,0,1-52.84-46.49A5.13,5.13,0,1,1,157,72.48,43,43,0,0,0,242.12,74a5.13,5.13,0,1,1,10.12,1.66,53.3,53.3,0,0,1-52.56,44.58Z"></path>
  <path class="a658acff-a637-4de7-9742-3b7c95972de1" d="M246.84,62.43a5.13,5.13,0,0,1-5-4.1A43.14,43.14,0,0,0,199.68,24a42.54,42.54,0,0,0-26.94,9.48,43.16,43.16,0,0,0-15,23.76,5.13,5.13,0,1,1-10-2.31,53.28,53.28,0,0,1,104.07,1.35,5.13,5.13,0,0,1-4,6A5.23,5.23,0,0,1,246.84,62.43Z"></path>
  <path class="a658acff-a637-4de7-9742-3b7c95972de1" d="M309.77,120.27a5.13,5.13,0,0,1,0-10.26,43.11,43.11,0,0,0,42.16-34.44,5.13,5.13,0,1,1,10.06,2A53.42,53.42,0,0,1,309.77,120.27Z"></path>
  <path class="a658acff-a637-4de7-9742-3b7c95972de1" d="M356.93,62.43a5.15,5.15,0,0,1-5-4.1A43.13,43.13,0,0,0,309.77,24a5.13,5.13,0,0,1,0-10.26A53.43,53.43,0,0,1,362,56.27a5.16,5.16,0,0,1-5,6.16Z"></path>
  <path class="a658acff-a637-4de7-9742-3b7c95972de1" d="M20.78,62.43a5.16,5.16,0,0,1-5-6.16A53.28,53.28,0,0,1,105.6,29.33a5.13,5.13,0,0,1-7.25,7.26A42.69,42.69,0,0,0,67.94,24,43.13,43.13,0,0,0,25.8,58.33,5.15,5.15,0,0,1,20.78,62.43Z"></path>
  <path class="a658acff-a637-4de7-9742-3b7c95972de1" d="M67.94,120.27A53.43,53.43,0,0,1,15.75,77.73,5.13,5.13,0,0,1,25.8,75.67,43,43,0,0,0,96.41,99.24a5.13,5.13,0,0,1,6.8,7.68A53.22,53.22,0,0,1,67.94,120.27Z"></path>
  <path class="a658acff-a637-4de7-9742-3b7c95972de1" d="M489.66,25.7H420.15a5.13,5.13,0,0,1,0-10.26h69.51a5.13,5.13,0,0,1,0,10.26Z"></path>
  <path class="a658acff-a637-4de7-9742-3b7c95972de1" d="M490.23,120.27H420.72a5.13,5.13,0,0,1,0-10.26h69.51a5.13,5.13,0,0,1,0,10.26Z"></path>
  <path class="a658acff-a637-4de7-9742-3b7c95972de1" d="M457.75,71.27h-37a5.13,5.13,0,1,1,0-10.25h37a5.13,5.13,0,1,1,0,10.25Z"></path>
</svg>
